# AST/ASF file generated using VICON BodyLanguage
# -----------------------------------------------
:version 1.10
:name VICON
:units
  mass 1.0
  length 0.45
  angle deg
:documentation
   .ast/.asf automatically generated from VICON data using
   VICON BodyBuilder and BodyLanguage model FoxedUp or BRILLIANT.MOD
:root
   order TX TY TZ RX RY RZ
   axis XYZ
   position 0 0 0  
   orientation 0 0 0 
:bonedata
  begin
     id 1 
     name lhipjoint
     direction 0.693937 -0.600361 0.397515 
     length 2.37164 
     axis 0 0 0  XYZ
  end
  begin
     id 2 
     name lfemur
     direction 0.34202 -0.939693 0  
     length 6.18497  
     axis 0 0 20  XYZ
    dof rx ry rz
    limits (-160.0 20.0)
           (-70.0 70.0)
           (-60.0 70.0)
  end
  begin
     id 3 
     name ltibia
     direction 0.34202 -0.939693 0   
     length 6.91601   
     axis 0 0 20   XYZ
    dof rx
    limits (-10.0 170.0)
  end
  begin
     id 4 
     name lfoot
     direction 0.0978718 -0.2689 0.958182   
     length 1.81453   
     axis -90 7.62852e-016 20   XYZ
    dof rx rz
    limits (-45.0 90.0)
           (-70.0 20.0)
  end
  begin
     id 5 
     name ltoes
     direction 1.53569e-011 -4.21951e-011 1   
     length 0.912052   
     axis -90 7.62852e-016 20   XYZ
    dof rx
    limits (-90.0 20.0)
  end
  begin
     id 6 
     name rhipjoint
     direction -0.643996 -0.637876 0.422354   
     length 2.23216  
     axis 0 0 0  XYZ 
  end
  begin
     id 7 
     name rfemur
     direction -0.34202 -0.939693 0   
     length 6.15404   
     axis 0 0 -20   XYZ
    dof rx ry rz
    limits (-160.0 20.0)
           (-70.0 70.0)
           (-70.0 60.0)
  end
  begin
     id 8 
     name rtibia
     direction -0.34202 -0.939693 0   
     length 6.86744   
     axis 0 0 -20   XYZ
    dof rx
    limits (-10.0 170.0)
 end
 begin
     id 9 
     name rfoot
     direction -0.118701 -0.326127 0.937844   
     length 1.9243  
     axis -90 -7.62852e-016 -20   XYZ
    dof rx rz
    limits (-45.0 90.0)
           (-20.0 70.0)
  end
  begin
     id 10 
     name rtoes
     direction -1.5356e-011 -4.2181e-011 1   
     length 0.958865   
     axis -90 -7.62852e-016 -20   XYZ
    dof rx
    limits (-90.0 20.0)
  end
  begin
     id 11 
     name lowerback
     direction 0.0310826 0.968686 -0.246334   
     length 2.00021   
     axis 0 0 0   XYZ
    dof rx ry rz
    limits (-20.0 45.0)
           (-30.0 30.0)
           (-30.0 30.0)
  end
  begin
     id 12 
     name upperback
     direction -0.0152834 0.999474 -0.0286152   
     length 2.03728   
     axis 0 0 0   XYZ
    dof rx ry rz
    limits (-20.0 45.0)
           (-30.0 30.0)
           (-30.0 30.0)
  end
  begin
     id 13 
     name thorax
     direction -0.0323701 0.996236 0.0804149   
     length 2.16   
     axis 0 0 0   XYZ
    dof rx ry rz
    limits (-20.0 45.0)
           (-30.0 30.0)
           (-30.0 30.0)
  end
  begin
     id 14 
     name lowerneck
     direction 0.0307935 0.982251 0.185027   
     length 1.43558   
     axis 0 0 0   XYZ
    dof rx ry rz
    limits (-20.0 45.0)
           (-30.0 30.0)
           (-30.0 30.0)
  end
  begin
     id 15 
     name upperneck
     direction -0.0927153 0.994775 0.0427454   
     length 1.44603   
     axis 0 0 0   XYZ
    dof rx ry rz
    limits (-20.0 45.0)
           (-30.0 30.0)
           (-30.0 30.0)
  end
  begin
     id 16
     name head
     direction -0.0341265 0.999406 -0.00472033  
     length 1.45931  
     axis 0 0 0   XYZ
    dof rx ry rz
    limits (-20.0 45.0)
           (-30.0 30.0)
           (-30.0 30.0)
  end
  begin
     id 17 
     name lclavicle
     direction 0.820755 0.555306 -0.134151  
     length 2.66075  
     axis 0 0 0   XYZ
    dof ry rz
    limits (-20.0 10.0)
           (0.0 20.0)
  end
  begin
     id 18 
     name lhumerus
     direction 1 -4.48971e-011 5.24853e-027   
     length 5.0546   
     axis -180 -30 -90   XYZ
    dof rx ry rz
    limits (-60.0 90.0)
           (-90.0 90.0)
           (-90.0 90.0)
  end
  begin
     id 19
     name lradius
     direction 1 -4.48971e-011 2.76575e-028   
     length 3.39013   
     axis -180 -30 -90   XYZ
    dof rx
    limits (-10.0 170.0)
  end
  begin
     id 20
     name lwrist
     direction 1 -4.48939e-011 -2.27826e-027   
     length 1.69507   
     axis 2.17013e-015 90 90   XYZ
    dof ry
    limits (-180.0 0.0)
 end
  begin
     id 21 
     name lhand
     direction 1 -4.49009e-011 -4.55652e-027   
     length 0.572425   
     axis 2.90745e-015 90 90   XYZ
    dof rx rz
    limits (-90.0 90.0)
           (-45.0 45.0)
  end
  begin
     id 22 
     name lfingers
     direction 1 -4.48955e-011 -9.11303e-027   
     length 0.461504   
     axis 5.81489e-015 90 90   XYZ
    dof rx
    limits (0.0 90.0)
  end
  begin
     id 23
     name lthumb
     direction 0.707107 -6.34929e-011 0.707107   
     length 0.66263   
     axis -90 45 2.85299e-015   XYZ
    dof rx rz
    limits (-45.0 45.0)
           (-45.0 45.0)
  end
  begin
     id 24 
     name rclavicle
     direction -0.754477 0.632921 -0.173712   
     length 2.73081  
     axis 0 0 0   XYZ 
    dof ry rz
    limits (-10.0 20.0)
           (-20.0 0.0)
  end
  begin
     id 25 
     name rhumerus
     direction -1 -4.48969e-011 5.1496e-027  
     length 5.0701   
     axis -180 30 90   XYZ
    dof rx ry rz
    limits (-90.0 60.0)
           (-90.0 90.0)
           (-90.0 90.0)
  end
  begin
     id 26 
     name rradius
     direction -1 -4.48967e-011 -7.15624e-028   
     length 3.14957   
     axis -180 30 90   XYZ
    dof rx
    limits (-10.0 170.0)
  end
  begin
     id 27 
     name rwrist
     direction -1 -4.48938e-011 -2.27826e-027   
     length 1.57479   
     axis 2.17013e-015 -90 -90   XYZ
    dof ry
    limits (-180.0 0.0)
  end
  begin
     id 28
     name rhand
     direction -1 -4.49008e-011 -4.55652e-027   
     length 0.718191   
     axis 2.90745e-015 -90 -90   XYZ
    dof rx rz
    limits (-90.0 90.0)
           (-45.0 45.0)
  end
  begin
     id 29
     name rfingers
     direction -1 -4.48953e-011 -9.11303e-027   
     length 0.579024   
     axis 5.81489e-015 -90 -90   XYZ
    dof rx
    limits (0.0 90.0)
  end
  begin
     id 30
     name rthumb
     direction -0.707107 -6.34937e-011 0.707107   
     length 0.831366   
     axis -90 -45 -2.85299e-015   XYZ
    dof rx rz
    limits (-45.0 45.0)
           (-45.0 45.0)
  end
:hierarchy
  begin
    root lhipjoint rhipjoint lowerback
    lhipjoint lfemur
    lfemur ltibia
    ltibia lfoot
    lfoot ltoes
    rhipjoint rfemur
    rfemur rtibia
    rtibia rfoot
    rfoot rtoes
    lowerback upperback
    upperback thorax
    thorax lowerneck lclavicle rclavicle
    lowerneck upperneck
    upperneck head
    lclavicle lhumerus
    lhumerus lradius
    lradius lwrist
    lwrist lhand lthumb
    lhand lfingers
    rclavicle rhumerus
    rhumerus rradius
    rradius rwrist
    rwrist rhand rthumb
    rhand rfingers
  end

#!OML:ASF H:\Male1\Project 1\Capture day 1\Session 1\Male1.ASF
:FULLY-SPECIFIED
:DEGREES
1
root 22.1924 15.3291 1.197 155.036 -82.6937 -157.379
lowerback 8.84138 0.902581 -3.90789
upperback 0.905249 0.757585 -0.513509
thorax -4.06402 0.419362 1.57314
lowerneck -13.583 -5.78523 0.105692
upperneck 18.6552 -8.51899 1.56263
head 8.08152 -3.95467 -0.439284
rclavicle 7.30534e-015 -1.11319e-014
rhumerus -38.9808 15.2265 -93.2508
rradius 33.1053
rwrist -17.6385
rhand -13.8044 0.461102
rfingers 7.12502
rthumb 12.3177 -29.1561
lclavicle 7.30534e-015 -1.11319e-014
lhumerus -34.8232 -4.80467 87.4482
lradius 26.7845
lwrist -12.3309
lhand -16.4847 10.2086
lfingers 7.12502
lthumb 9.73256 39.9638
rfemur -7.82853 15.5884 24.7432
rtibia 27.7642
rfoot -36.0142 -32.8543
rtoes -4.95337
lfemur -5.34312 -18.29 -24.7958
ltibia 30.3227
lfoot -34.4673 28.3846
ltoes 18.6531
2
root 22.1935 15.328 1.19865 155.034 -82.6861 -157.323
lowerback 8.75453 0.953728 -3.8292
upperback 0.960446 0.833619 -0.598398
thorax -3.95988 0.451983 1.43289
lowerneck -13.2395 -5.87413 0.323943
upperneck 18.4074 -8.66355 1.51399
head 7.92649 -4.02307 -0.48798
rclavicle -1.9133e-014 3.97569e-015
rhumerus -38.6611 14.8077 -93.0489
rradius 32.8078
rwrist -17.4857
rhand -13.8484 0.614577
rfingers 7.12502
rthumb 12.2752 -29.0051
lclavicle -1.9133e-014 3.97569e-015
lhumerus -34.2255 -4.70924 87.0069
lradius 26.475
lwrist -10.1533
lhand -17.1278 10.5569
lfingers 7.12502
lthumb 9.11202 40.3401
rfemur -7.94711 15.587 24.7292
rtibia 27.8802
rfoot -36.0306 -32.8084
rtoes -5.06836
lfemur -5.40629 -18.4965 -24.7575
ltibia 30.2237
lfoot -34.6637 28.3716
ltoes 18.5646
3
root 22.1957 15.3257 1.19956 155.531 -82.686 -157.716
lowerback 8.53435 1.00013 -3.88411
upperback 1.03765 0.900493 -0.627695
thorax -3.76054 0.481067 1.42875
lowerneck -12.912 -5.92911 0.332811
upperneck 18.235 -8.74406 1.57757
head 7.81431 -4.06318 -0.462178
rclavicle 2.79292e-014 -3.97569e-015
rhumerus -38.3228 14.7266 -92.8502
rradius 32.5702
rwrist -17.4277
rhand -13.8782 0.529127
rfingers 7.12502
rthumb 12.2466 -29.0923
lclavicle 2.79292e-014 -3.97569e-015
lhumerus -33.7689 -4.31505 86.6657
lradius 26.3478
lwrist -7.85212
lhand -18.2247 10.9399
lfingers 7.12502
lthumb 8.05344 40.7664
rfemur -8.12998 15.4751 24.6263
rtibia 27.9575
rfoot -35.9515 -32.7065
rtoes -5.08846
lfemur -5.45649 -18.2896 -24.7811
ltibia 30.1252
lfoot -34.3809 28.4676
ltoes 16.9115
4
root 22.1963 15.3266 1.20135 156.056 -82.6892 -158.197
lowerback 8.32901 1.03018 -3.98338
upperback 1.1736 0.943152 -0.622306
thorax -3.50863 0.496726 1.48914
lowerneck -12.5352 -5.97676 0.248424
upperneck 17.9435 -8.79889 1.70577
head 7.6617 -4.09325 -0.393603
rclavicle 1.37161e-014 1.59028e-014
rhumerus -37.9912 14.7161 -92.6147
rradius 32.4937
rwrist -17.3204
rhand -13.8516 0.416963
rfingers 7.12502
rthumb 12.2722 -29.2029
lclavicle 1.37161e-014 1.59028e-014
lhumerus -33.2131 -3.27794 86.1468
lradius 26.1709
lwrist -6.41008
lhand -19.2232 11.1757
lfingers 7.12502
lthumb 7.08972 41.037
rfemur -8.21625 15.3291 24.5231
rtibia 27.9915
rfoot -35.7387 -32.6864
rtoes -5.54146
lfemur -5.47109 -18.3395 -24.8476
ltibia 30.0574
lfoot -34.4197 28.5708
ltoes 16.7985
5
root 22.1966 15.3315 1.20325 156.279 -82.7118 -158.435
lowerback 8.29826 1.0418 -4.06219
upperback 1.27802 0.953757 -0.616089
thorax -3.38502 0.498448 1.54005
lowerneck -12.2817 -5.9766 0.242225
upperneck 17.7159 -8.80126 1.80055
head 7.547 -4.09353 -0.348563
rclavicle -9.29318e-015 -3.97569e-015
rhumerus -37.7804 14.5453 -92.3799
rradius 32.5337
rwrist -17.1163
rhand -13.6733 0.377677
rfingers 7.12502
rthumb 12.4441 -29.2319
lclavicle -9.29318e-015 -3.97569e-015
lhumerus -32.5575 -2.25637 85.5748
lradius 25.834
lwrist -5.47175
lhand -19.8914 11.3489
lfingers 7.12502
lthumb 6.4447 41.2309
rfemur -8.20988 15.2732 24.466
rtibia 28.0074
rfoot -35.615 -32.7232
rtoes -6.05877
lfemur -5.46956 -18.6508 -24.8846
ltibia 29.9961
lfoot -34.8104 28.4822
ltoes 18.7982
6
root 22.1977 15.3355 1.20447 156.798 -82.6948 -158.945
lowerback 8.31175 1.07727 -4.15835
upperback 1.31415 0.991329 -0.616689
thorax -3.35881 0.516701 1.58931
lowerneck -12.2078 -5.93915 0.305156
upperneck 17.7052 -8.76442 1.81007
head 7.52784 -4.0728 -0.348935
rclavicle -7.30534e-015 8.74653e-015
rhumerus -37.7214 14.3748 -92.2102
rradius 32.6409
rwrist -17.0467
rhand -13.4545 0.385816
rfingers 7.12502
rthumb 12.655 -29.2108
lclavicle -7.30534e-015 8.74653e-015
lhumerus -31.899 -1.74213 85.1934
lradius 25.291
lwrist -4.38396
lhand -20.3732 11.3637
lfingers 7.12502
lthumb 5.97951 41.2593
rfemur -8.22962 15.2564 24.3885
rtibia 27.9952
rfoot -35.4725 -32.7458
rtoes -6.38246
lfemur -5.46619 -18.6311 -24.9432
ltibia 29.9541
lfoot -34.72 28.5097
ltoes 19.4201
7
root 22.2003 15.3374 1.20551 157.503 -82.6552 -159.598
lowerback 8.22146 1.15253 -4.25215
upperback 1.3444 1.08778 -0.622116
thorax -3.28438 0.563556 1.6271
lowerneck -12.066 -5.96737 0.301614
upperneck 17.7108 -8.81271 1.85176
head 7.50729 -4.09524 -0.335177
rclavicle 5.56597e-015 1.11319e-014
rhumerus -37.6752 14.082 -92.0207
rradius 32.722
rwrist -17.0097
rhand -13.4584 0.684426
rfingers 7.12502
rthumb 12.6513 -28.9124
lclavicle 5.56597e-015 1.11319e-014
lhumerus -31.8136 -0.101342 84.5445
lradius 25.6533
lwrist -4.66283
lhand -21.001 11.7617
lfingers 7.12502
lthumb 5.37341 41.6736
rfemur -8.30566 15.2524 24.2955
rtibia 27.9801
rfoot -35.3358 -32.742
rtoes -6.44293
lfemur -5.51239 -18.5214 -25.0065
ltibia 29.9281
lfoot -34.5098 28.6516
ltoes 18.9828
8
root 22.2056 15.3388 1.20756 157.797 -82.7068 -159.827
lowerback 8.15737 1.21958 -4.27274
upperback 1.35951 1.17785 -0.642217
thorax -3.2384 0.607194 1.60898
lowerneck -11.8672 -6.05216 0.175704
upperneck 17.7187 -8.94081 2.018
head 7.49008 -4.15358 -0.268444
rclavicle -1.65985e-014 1.82882e-014
rhumerus -37.5732 13.4253 -91.758
rradius 32.7113
rwrist -16.723
rhand -13.6629 1.03689
rfingers 7.12502
rthumb 12.4541 -28.572
lclavicle -1.65985e-014 1.82882e-014
lhumerus -31.6484 0.721835 84.2867
lradius 25.7755
lwrist -4.2058
lhand -23.184 12.8433
lfingers 7.12502
lthumb 3.26541 42.7981
rfemur -8.39596 15.2438 24.2154
rtibia 27.9857
rfoot -35.4231 -32.67
rtoes -6.095
lfemur -5.60969 -18.5896 -25.03
ltibia 29.9046
lfoot -34.573 28.6523
ltoes 19.2285
9
root 22.2099 15.3395 1.21171 157.753 -82.7541 -159.783
lowerback 8.27755 1.26494 -4.18839
upperback 1.33198 1.23727 -0.668188
thorax -3.33522 0.637641 1.52569
lowerneck -11.9027 -6.0664 0.0590241
upperneck 17.9357 -8.97986 2.13874
head 7.57967 -4.1658 -0.221552
rclavicle 4.57205e-015 -1.03368e-014
rhumerus -37.4976 12.6692 -91.5389
rradius 32.6666
rwrist -16.5063
rhand -13.8088 1.06563
rfingers 7.12502
rthumb 12.3134 -28.5518
lclavicle 4.57205e-015 -1.03368e-014
lhumerus -31.6058 1.23444 84.1687
lradius 25.8136
lwrist -3.56264
lhand -21.8999 14.9624
lfingers 7.12502
lthumb 4.50546 44.8945
rfemur -8.39422 15.196 24.1791
rtibia 27.9604
rfoot -35.5264 -32.5618
rtoes -5.74541
lfemur -5.6101 -18.531 -25.0631
ltibia 29.9159
lfoot -34.5105 28.7102
ltoes 18.9962
10
root 22.2126 15.3397 1.21617 157.583 -82.6997 -159.642
lowerback 8.20993 1.31375 -4.13593
upperback 1.42576 1.3141 -0.606102
thorax -3.20489 0.671491 1.55438
lowerneck -12.0509 -6.00241 -0.0349167
upperneck 18.0881 -8.87935 2.12231
head 7.65839 -4.11999 -0.210125
rclavicle -1.97791e-014 -1.59028e-015
rhumerus -37.1914 11.973 -91.2092
rradius 32.5049
rwrist -16.5199
rhand -13.7663 0.938478
rfingers 7.12502
rthumb 12.3545 -28.6765
lclavicle -1.97791e-014 -1.59028e-015
lhumerus -31.3576 1.93786 84.1079
lradius 25.6574
lwrist -3.70532
lhand -21.7955 13.8923
lfingers 7.12502
lthumb 4.6062 43.8222
rfemur -8.34818 15.2492 24.2108
rtibia 27.8975
rfoot -35.5678 -32.5271
rtoes -5.44485
lfemur -5.5841 -18.4209 -25.0632
ltibia 29.9655
lfoot -34.4066 28.8382
ltoes 18.3911
11
root 22.2185 15.3419 1.21792 156.404 -82.6612 -158.422
lowerback 8.21934 1.32042 -3.96256
upperback 1.42402 1.34159 -0.530754
thorax -3.21136 0.684383 1.53191
lowerneck -12.0562 -5.94834 -0.0935624
upperneck 18.1284 -8.78898 2.09152
head 7.67263 -4.08264 -0.202429
rclavicle -5.91384e-015 9.54166e-015
rhumerus -36.8947 11.1685 -90.959
rradius 32.1782
rwrist -16.688
rhand -13.5792 0.598898
rfingers 7.12502
rthumb 12.5348 -29.0051
lclavicle -5.91384e-015 9.54166e-015
lhumerus -31.1335 2.5667 84.0247
lradius 25.3902
lwrist -4.38042
lhand -24.0294 2.46578
lfingers 7.12502
lthumb 2.44899 32.4315
rfemur -8.37274 15.4089 24.382
rtibia 27.8346
rfoot -35.6524 -32.6428
rtoes -5.13075
lfemur -5.69254 -18.3473 -24.8551
ltibia 30.017
lfoot -34.2774 28.8556
ltoes 17.9889
12
root 22.2227 15.3406 1.21869 155.07 -82.6375 -157.052
lowerback 8.26301 1.3178 -3.7502
upperback 1.40845 1.35713 -0.483573
thorax -3.24893 0.69139 1.45888
lowerneck -12.0413 -5.93871 -0.0609046
upperneck 18.0896 -8.76742 2.03709
head 7.6527 -4.07572 -0.221447
rclavicle -1.4064e-014 -1.27222e-014
rhumerus -36.5669 10.3395 -90.7801
rradius 31.7993
rwrist -16.7567
rhand -13.462 0.396157
rfingers 7.12502
rthumb 12.6478 -29.2009
lclavicle -1.4064e-014 -1.27222e-014
lhumerus -30.9834 2.88011 84.0831
lradius 25.1742
lwrist -4.62195
lhand -24.0707 2.1294
lfingers 7.12502
lthumb 2.4091 32.0955
rfemur -8.39005 15.5461 24.5658
rtibia 27.7868
rfoot -35.7693 -32.7506
rtoes -4.9229
lfemur -5.77086 -18.3256 -24.6471
ltibia 30.0462
lfoot -34.2003 28.8796
ltoes 17.1408
13
root 22.2252 15.3364 1.21925 154.423 -82.7014 -156.36
lowerback 8.23263 1.3219 -3.62783
upperback 1.41621 1.37454 -0.498602
thorax -3.22166 0.698242 1.37344
lowerneck -12.0575 -5.9483 0.0757585
upperneck 18.0313 -8.7905 1.97667
head 7.62747 -4.08358 -0.264048
rclavicle -2.73826e-014 1.03368e-014
rhumerus -36.0981 9.2763 -90.5421
rradius 31.3435
rwrist -16.1386
rhand -13.5046 0.483331
rfingers 7.12502
rthumb 12.6067 -29.1163
lclavicle -2.73826e-014 1.03368e-014
lhumerus -30.7514 2.66371 84.3346
lradius 24.9674
lwrist -4.5203
lhand -24.4092 1.67198
lfingers 7.12502
lthumb 2.08219 31.6416
rfemur -8.40086 15.6185 24.6149
rtibia 27.715
rfoot -35.9634 -32.814
rtoes -4.68909
lfemur -5.84197 -18.4433 -24.5889
ltibia 30.0818
lfoot -34.2518 28.8752
ltoes 16.0817
